<?xml version="1.0"?>
<svg xmlns:rdf="http://www.w3.org/1999/02/22-rdf-syntax-ns#" xmlns="http://www.w3.org/2000/svg" xmlns:cc="http://web.resource.org/cc/" xmlns:dc="http://purl.org/dc/elements/1.1/" xmlns:svg="http://www.w3.org/2000/svg" id="svg2" viewBox="0 0 910.5 977.17" version="1.0">
  <g id="layer1" stroke-linejoin="round" stroke="#000" stroke-linecap="round" transform="translate(-76.152 -21.1)">
    <path id="path3365" stroke-width="12.228px" fill="#fff" d="m620.58 960.19c-64.11 70.803-193.85 5.6104-206.81-20.267-9.5732-19.116-13.135-24.1-21.883-4.5878-18.052 40.26-120.82 11.874-126.58-43.245-1.6915-16.194-5.5856-20.265-18.364-4.5142-16.962 20.908-77.63 0.3663-74.805-48.571 0.87137-15.092-6.7517-27.289-12.909-14.713-17.586 35.917-79.281 18.908-76.902-47.627 0.99629-27.858 36.49-151.32 38.864-163.18 5.3447-26.706 85.007-15.186 79.879 17.675-5.1279 32.861-22.419 113.5-22.419 113.5s31.016-125.54 33.347-140.48c6.2753-40.213 108.42-6.9425 101.48 24.874-2.4795 11.383-30.906 145.55-30.906 145.55s27.559-132.65 29.89-147.59c3.7126-23.788 46.375-23.504 80.642-10.53-4.6396 16.462-3.553 38.57 8.4835 53.974 6.4091 8.2026 31.539 26.635 27.321 50.521-6.2193 35.225-12.702 70.554-12.702 70.554-0.92221-2.8906 49.848-34.712 72.214-31.338 20.056 3.025-41.348-46.989-52.365-54.829-11.017-7.8394-27.876-22.136-39.383-39.898-15.439-23.83 6.0489-88.61 37.769-84.972 30.304 3.4754 156.12 18.99 196.86 76.545 54.82 77.455 53.389 232.34-10.721 303.15z"/>
    <path id="path3378" stroke-width="12.228px" fill="#fff" d="m839.1 240.27c93.028 21.657 99.046 166.73 82.719 190.63-12.062 17.652-14.688 23.186 6.6132 21.358 43.96-3.7714 69.054 99.847 23.667 131.65-13.335 9.3431-15.002 14.724 4.9719 18.245 26.514 4.673 38.021 67.683-6.1298 88.979-13.616 6.5678-20.576 19.155-6.5919 18.43 39.938-2.0698 55.031 60.122-4.2864 90.353-24.836 12.658-150 41.591-161.52 45.275-25.941 8.2979-54.558-66.934-23.341-78.41 31.216-11.476 110.11-35.524 110.11-35.524s-124.8 33.854-138.99 39.071c-38.2 14.044-58.72-91.401-27.538-100.79 11.156-3.3584 142.24-43.668 142.24-43.668s-129.34 40.33-143.53 45.547c-22.598 8.3077-43.068-29.125-48.369-65.38 16.644-3.9394 35.441-15.625 43.062-33.628 4.0582-9.5858 7.9666-40.505 30.895-48.418 33.812-11.67 67.844-23.16 67.844-23.16-2.0788 2.21-54.552-26.717-62.465-47.907-7.0956-19.001-20.996 58.965-22.498 72.403-1.5026 13.438-5.8126 35.118-15.751 53.804-13.333 25.069-80.397 37.745-92.621 8.2499-11.69-28.17-59.23-145.69-28.7-209.25 41.09-85.53 177.18-159.5 270.21-137.85z"/>
    <path id="path3386" stroke-width="12.228px" fill="#fff" d="m100.44 416.58c-29.755-90.762 91.139-171.18 120.04-169.62 21.349 1.1518 27.441 0.52921 14.827-16.735-26.034-35.623 49.525-110.84 100.26-88.54 14.906 6.5513 20.372 5.185 13.017-13.717-9.7625-25.091 38.132-67.621 79.245-40.928 12.68 8.2321 27.051 7.6508 19.175-3.9276-22.492-33.067 22.842-78.238 79.463-43.217 23.707 14.663 113.38 106.65 122.51 114.58 20.553 17.87-28.911 81.369-54.918 60.638s-87.499-75.695-87.499-75.695 93.697 89.123 105.52 98.546c31.826 25.369-47.667 97.622-71.871 75.837-8.6594-7.7942-111.13-98.937-111.13-98.937s101.59 89.643 113.41 99.066c18.827 15.007-2.5511 51.929-30.793 75.272-12.003-12.184-31.747-22.19-51.09-19.363-10.3 1.5051-38.759 14.206-57.421-1.2876-27.52-22.85-55-45.98-55-45.98 2.9679 0.63034 5.4654 60.496-8.5428 78.256-12.561 15.924 61.3-12.647 73.567-18.335 12.267-5.6879 33.037-13.253 54.167-14.452 28.348-1.6091 73.982 49.143 55.111 74.897-18.028 24.604-93.822 126.22-164 133.1-94.439 9.2609-228.29-68.698-258.04-159.46z"/>
    <path id="path3359" stroke-width="12.228" fill-rule="evenodd" fill="#fff" d="m422.47 867.6c7.2052-46.173 59.895-76.337 117.61-67.33 57.716 9.0065 98.71 53.79 91.505 99.962-7.2051 46.173-59.895 76.337-117.61 67.33-57.716-9.0065-98.71-53.789-91.505-99.962z"/>
    <path id="path3361" stroke-width="9.1346" fill-rule="evenodd" fill="#dcdcdc" d="m450.58 873.48c27.813 27.835 122.44 41.599 155.41 24.252-5.4098 34.668-44.613 57.372-87.507 50.678-42.894-6.6935-73.316-40.262-67.906-74.93z"/>
    <path id="path3374" stroke-width="12.228" fill-rule="evenodd" fill="#fff" d="m854.37 458.42c-43.861 16.125-95.818-15.285-115.97-70.112-20.156-54.827-0.91724-112.41 42.944-128.54 43.861-16.125 95.817 15.285 115.97 70.112 20.156 54.827 0.91736 112.41-42.944 128.54z"/>
    <path id="path3376" stroke-width="9.1346" fill-rule="evenodd" fill="#dcdcdc" d="m845.86 430.98c10.825-37.83-23.099-127.24-54.275-147.63 32.932-12.107 71.818 11.137 86.797 51.883 14.98 40.747 0.40982 83.642-32.523 95.749z"/>
    <path id="path3382" stroke-width="12.228" fill-rule="evenodd" fill="#fff" d="m278.99 290.33c36.543 29.128 36.65 89.841 0.23937 135.52-36.41 45.678-95.619 59.11-132.16 29.982-36.543-29.128-36.65-89.841-0.2395-135.52 36.411-45.678 95.619-59.11 132.16-29.982z"/>
    <path id="path3384" stroke-width="9.1346" fill-rule="evenodd" fill="#dcdcdc" d="m259.96 311.85c-37.956 10.375-96.782 85.765-98.043 123-27.437-21.871-27.744-67.172-0.68387-101.12s71.29-43.749 98.727-21.879z"/>
  </g>
  <metadata>
    <rdf:RDF>
      <cc:Work>
        <dc:format>image/svg+xml</dc:format>
        <dc:type rdf:resource="http://purl.org/dc/dcmitype/StillImage"/>
        <cc:license rdf:resource="http://creativecommons.org/licenses/publicdomain/"/>
        <dc:publisher>
          <cc:Agent rdf:about="http://openclipart.org/">
            <dc:title>Openclipart</dc:title>
          </cc:Agent>
        </dc:publisher>
        <dc:title>Passive Aggression - Itnl logo</dc:title>
        <dc:date>2009-09-29T18:40:14</dc:date>
        <dc:description>Proposed logo for all things passive aggressive in nature.</dc:description>
        <dc:source>http://openclipart.org/detail/27627/passive-aggression---itnl-logo-by-sutrannu</dc:source>
        <dc:creator>
          <cc:Agent>
            <dc:title>sutrannu</dc:title>
          </cc:Agent>
        </dc:creator>
        <dc:subject>
          <rdf:Bag>
            <rdf:li>black and white</rdf:li>
            <rdf:li>clip art</rdf:li>
            <rdf:li>clipart</rdf:li>
            <rdf:li>finger</rdf:li>
            <rdf:li>hand</rdf:li>
            <rdf:li>image</rdf:li>
            <rdf:li>joke</rdf:li>
            <rdf:li>line art</rdf:li>
            <rdf:li>logo</rdf:li>
            <rdf:li>media</rdf:li>
            <rdf:li>outline</rdf:li>
            <rdf:li>passive aggression</rdf:li>
            <rdf:li>png</rdf:li>
            <rdf:li>point</rdf:li>
            <rdf:li>public domain</rdf:li>
            <rdf:li>svg</rdf:li>
          </rdf:Bag>
        </dc:subject>
      </cc:Work>
      <cc:License rdf:about="http://creativecommons.org/licenses/publicdomain/">
        <cc:permits rdf:resource="http://creativecommons.org/ns#Reproduction"/>
        <cc:permits rdf:resource="http://creativecommons.org/ns#Distribution"/>
        <cc:permits rdf:resource="http://creativecommons.org/ns#DerivativeWorks"/>
      </cc:License>
    </rdf:RDF>
  </metadata>
</svg>
